REM DIRINDEX 1\8,1\2\11,1\3\12,1\3\14,1\5\15,1\5\16,1\6\17,1\6\18,1\4\19,1\4\20,1\4\21,1\4\22,1\7\23,1\7\24,1\7\25,1\2\9\26,1\2\9\27,1\2\10\28,1\2\10\29,1\2\10\30,1\2\10\31,1\2\10\32,1\3\13\33,1\3\13\34,1\3\13\35
REM DIRNAME cjc123,folder01,folder02,folder03,folder04,folder05,folder06,folder07,folder08,folder09,folder10,folder11,folder12,folder13,folder14,folder15,folder16,folder17,folder18,folder19,folder20,folder21,folder22,folder23,folder24,folder25,folder26,folder27,folder28,folder29,folder30,folder31,folder32,folder33,folder34
TITLE ""
FILE "2-52 052_UNIT5_WARM-UP-40.mp3" MP3
  TRACK 01 AUDIO
    TITLE "11:cjc123_5491"
    INDEX 01 00:00:00
  TRACK 02 AUDIO
    TITLE "0:"
    INDEX 01 00:02:67
  TRACK 03 AUDIO
    TITLE "26:cjc123_5492"
    INDEX 01 00:03:47
  TRACK 04 AUDIO
    TITLE "0:"
    INDEX 01 00:04:60
  TRACK 05 AUDIO
    TITLE "27:cjc123_5493"
    INDEX 01 00:04:74
  TRACK 06 AUDIO
    TITLE "0:"
    INDEX 01 00:06:45
  TRACK 07 AUDIO
    TITLE "26:cjc123_5494"
    INDEX 01 00:07:15
  TRACK 08 AUDIO
    TITLE "0:"
    INDEX 01 00:09:04
  TRACK 09 AUDIO
    TITLE "27:cjc123_5495"
    INDEX 01 00:09:24
  TRACK 10 AUDIO
    TITLE "0:"
    INDEX 01 00:11:13
  TRACK 11 AUDIO
    TITLE "26:cjc123_5496"
    INDEX 01 00:11:54
  TRACK 12 AUDIO
    TITLE "0:"
    INDEX 01 00:12:58
  TRACK 13 AUDIO
    TITLE "27:cjc123_5497"
    INDEX 01 00:13:10
  TRACK 14 AUDIO
    TITLE "0:"
    INDEX 01 00:14:25
  TRACK 15 AUDIO
    TITLE "26:cjc123_5498"
    INDEX 01 00:14:72
  TRACK 16 AUDIO
    TITLE "0:"
    INDEX 01 00:16:22
  TRACK 17 AUDIO
    TITLE "27:cjc123_5499"
    INDEX 01 00:16:44
  TRACK 18 AUDIO
    TITLE "0:"
    INDEX 01 00:17:67
  TRACK 19 AUDIO
    TITLE "26:cjc123_5500"
    INDEX 01 00:18:35
  TRACK 20 AUDIO
    TITLE "0:"
    INDEX 01 00:19:48
  TRACK 21 AUDIO
    TITLE "27:cjc123_5501"
    INDEX 01 00:19:69
  TRACK 22 AUDIO
    TITLE "0:"
    INDEX 01 00:20:67
  TRACK 23 AUDIO
    TITLE "26:cjc123_5502"
    INDEX 01 00:21:39
  TRACK 24 AUDIO
    TITLE "0:"
    INDEX 01 00:22:52
  TRACK 25 AUDIO
    TITLE "27:cjc123_5503"
    INDEX 01 00:22:68
  TRACK 26 AUDIO
    TITLE "0:"
    INDEX 01 00:24:16
  TRACK 27 AUDIO
    TITLE "26:cjc123_5504"
    INDEX 01 00:24:61
  TRACK 28 AUDIO
    TITLE "0:"
    INDEX 01 00:26:13
  TRACK 29 AUDIO
    TITLE "27:cjc123_5505"
    INDEX 01 00:26:26
  TRACK 30 AUDIO
    TITLE "0:"
    INDEX 01 00:27:53
  TRACK 31 AUDIO
    TITLE "26:cjc123_5506"
    INDEX 01 00:28:21
  TRACK 32 AUDIO
    TITLE "0:"
    INDEX 01 00:29:38
  TRACK 33 AUDIO
    TITLE "27:cjc123_5507"
    INDEX 01 00:29:52
  TRACK 34 AUDIO
    TITLE "0:"
    INDEX 01 00:31:18
  TRACK 35 AUDIO
    TITLE "26:cjc123_5508"
    INDEX 01 00:31:65
  TRACK 36 AUDIO
    TITLE "0:"
    INDEX 01 00:33:24
  TRACK 37 AUDIO
    TITLE "27:cjc123_5509"
    INDEX 01 00:33:42
  TRACK 38 AUDIO
    TITLE "0:"
    INDEX 01 00:34:67
  TRACK 39 AUDIO
    TITLE "26:cjc123_5510"
    INDEX 01 00:35:47
  TRACK 40 AUDIO
    TITLE "0:"
    INDEX 01 00:36:42
  TRACK 41 AUDIO
    TITLE "27:cjc123_5511"
    INDEX 01 00:36:68
  TRACK 42 AUDIO
    TITLE "0:"
    INDEX 01 00:38:10
  TRACK 43 AUDIO
    TITLE "26:cjc123_5512"
    INDEX 01 00:38:53
  TRACK 44 AUDIO
    TITLE "0:"
    INDEX 01 00:39:49
  TRACK 45 AUDIO
    TITLE "27:cjc123_5513"
    INDEX 01 00:39:74
  TRACK 46 AUDIO
    TITLE "0:"
    INDEX 01 00:41:40
  TRACK 47 AUDIO
    TITLE "26:cjc123_5514"
    INDEX 01 00:42:10
  TRACK 48 AUDIO
    TITLE "0:"
    INDEX 01 00:43:33
  TRACK 49 AUDIO
    TITLE "27:cjc123_5515"
    INDEX 01 00:43:48
  TRACK 50 AUDIO
    TITLE "0:"
    INDEX 01 00:45:16
  TRACK 51 AUDIO
    TITLE "26:cjc123_5516"
    INDEX 01 00:45:65
  TRACK 52 AUDIO
    TITLE "0:"
    INDEX 01 00:47:13
  TRACK 53 AUDIO
    TITLE "27:cjc123_5517"
    INDEX 01 00:47:30
  TRACK 54 AUDIO
    TITLE "0:"
    INDEX 01 00:48:67
  TRACK 55 AUDIO
    TITLE "26:cjc123_5518"
    INDEX 01 00:49:39
  TRACK 56 AUDIO
    TITLE "0:"
    INDEX 01 00:50:37
  TRACK 57 AUDIO
    TITLE "27:cjc123_5519"
    INDEX 01 00:50:70
  TRACK 58 AUDIO
    TITLE "0:"
    INDEX 01 00:52:06
  TRACK 59 AUDIO
    TITLE "26:cjc123_5520"
    INDEX 01 00:52:57
  TRACK 60 AUDIO
    TITLE "0:"
    INDEX 01 00:54:07
  TRACK 61 AUDIO
    TITLE "27:cjc123_5521"
    INDEX 01 00:54:25
  TRACK 62 AUDIO
    TITLE "0:"
    INDEX 01 00:55:55
  TRACK 63 AUDIO
    TITLE "26:cjc123_5522"
    INDEX 01 00:56:27
  TRACK 64 AUDIO
    TITLE "0:"
    INDEX 01 00:57:70
  TRACK 65 AUDIO
    TITLE "27:cjc123_5523"
    INDEX 01 00:58:18
  TRACK 66 AUDIO
    TITLE "0:"
    INDEX 01 00:59:28
  TRACK 67 AUDIO
    TITLE "26:cjc123_5524"
    INDEX 01 00:59:71
  TRACK 68 AUDIO
    TITLE "0:"
    INDEX 01 01:01:01
  TRACK 69 AUDIO
    TITLE "27:cjc123_5525"
    INDEX 01 01:01:17
  TRACK 70 AUDIO
    TITLE "0:"
    INDEX 01 01:02:01
  TRACK 71 AUDIO
    TITLE "26:cjc123_5526"
    INDEX 01 01:02:52
  TRACK 72 AUDIO
    TITLE "0:"
    INDEX 01 01:03:67
  TRACK 73 AUDIO
    TITLE "27:cjc123_5527"
    INDEX 01 01:04:19
  TRACK 74 AUDIO
    TITLE "0:"
    INDEX 01 01:05:34
  TRACK 75 AUDIO
    TITLE "26:cjc123_5528"
    INDEX 01 01:06:08
  TRACK 76 AUDIO
    TITLE "0:"
    INDEX 01 01:07:33
  TRACK 77 AUDIO
    TITLE "27:cjc123_5529"
    INDEX 01 01:07:70
  TRACK 78 AUDIO
    TITLE "0:"
    INDEX 01 01:09:20
  TRACK 79 AUDIO
    TITLE "26:cjc123_5530"
    INDEX 01 01:09:67
  TRACK 80 AUDIO
    TITLE "0:"
    INDEX 01 01:10:69
  TRACK 81 AUDIO
    TITLE "27:cjc123_5531"
    INDEX 01 01:11:25
  TRACK 82 AUDIO
    TITLE "0:"
    INDEX 01 01:12:46
  TRACK 83 AUDIO
    TITLE "26:cjc123_5532"
    INDEX 01 01:13:34
  TRACK 84 AUDIO
    TITLE "0:"
    INDEX 01 01:14:25
  TRACK 85 AUDIO
    TITLE "27:cjc123_5533"
    INDEX 01 01:14:72
  TRACK 86 AUDIO
    TITLE "0:"
    INDEX 01 01:16:07
  TRACK 87 AUDIO
    TITLE "26:cjc123_5534"
    INDEX 01 01:16:65
  TRACK 88 AUDIO
    TITLE "0:"
    INDEX 01 01:17:57
  TRACK 89 AUDIO
    TITLE "27:cjc123_5535"
    INDEX 01 01:18:07
  TRACK 90 AUDIO
    TITLE "0:"
    INDEX 01 01:19:19
  TRACK 91 AUDIO
    TITLE "26:cjc123_5536"
    INDEX 01 01:19:68
  TRACK 92 AUDIO
    TITLE "0:"
    INDEX 01 01:20:73
  TRACK 93 AUDIO
    TITLE "27:cjc123_5537"
    INDEX 01 01:21:20
  TRACK 94 AUDIO
    TITLE "0:"
    INDEX 01 01:22:25
  TRACK 95 AUDIO
    TITLE "26:cjc123_5538"
    INDEX 01 01:22:74
  TRACK 96 AUDIO
    TITLE "0:"
    INDEX 01 01:23:67
  TRACK 97 AUDIO
    TITLE "27:cjc123_5539"
    INDEX 01 01:24:22
  TRACK 98 AUDIO
    TITLE "0:"
    INDEX 01 01:25:15
  TRACK 99 AUDIO
    TITLE "26:cjc123_5540"
    INDEX 01 01:25:60
  TRACK 100 AUDIO
    TITLE "0:"
    INDEX 01 01:26:52
  TRACK 101 AUDIO
    TITLE "27:cjc123_5541"
    INDEX 01 01:27:03
  TRACK 102 AUDIO
    TITLE "0:"
    INDEX 01 01:28:06
  TRACK 103 AUDIO
    TITLE "26:cjc123_5542"
    INDEX 01 01:28:53
  TRACK 104 AUDIO
    TITLE "0:"
    INDEX 01 01:30:13
  TRACK 105 AUDIO
    TITLE "27:cjc123_5543"
    INDEX 01 01:30:30
  TRACK 106 AUDIO
    TITLE "0:"
    INDEX 01 01:31:51
  TRACK 107 AUDIO
    TITLE "26:cjc123_5544"
    INDEX 01 01:32:21
  TRACK 108 AUDIO
    TITLE "0:"
    INDEX 01 01:33:33
  TRACK 109 AUDIO
    TITLE "27:cjc123_5545"
    INDEX 01 01:33:50
  TRACK 110 AUDIO
    TITLE "0:"
    INDEX 01 01:34:71
  TRACK 111 AUDIO
    TITLE "26:cjc123_5546"
    INDEX 01 01:35:43
  TRACK 112 AUDIO
    TITLE "0:"
    INDEX 01 01:36:31
  TRACK 113 AUDIO
    TITLE "27:cjc123_5547"
    INDEX 01 01:37:01
  TRACK 114 AUDIO
    TITLE "0:"
    INDEX 01 01:37:54
  TRACK 115 AUDIO
    TITLE "26:cjc123_5548"
    INDEX 01 01:38:26
  TRACK 116 AUDIO
    TITLE "0:"
    INDEX 01 01:39:43
  TRACK 117 AUDIO
    TITLE "27:cjc123_5549"
    INDEX 01 01:39:59
  TRACK 118 AUDIO
    TITLE "0:"
    INDEX 01 01:41:01
  TRACK 119 AUDIO
    TITLE "26:cjc123_5550"
    INDEX 01 01:41:44
  TRACK 120 AUDIO
    TITLE "0:"
    INDEX 01 01:42:49
  TRACK 121 AUDIO
    TITLE "27:cjc123_5551"
    INDEX 01 01:43:07
  TRACK 122 AUDIO
    TITLE "0:"
    INDEX 01 01:44:32
  TRACK 123 AUDIO
    TITLE "26:cjc123_5552"
    INDEX 01 01:45:02
  TRACK 124 AUDIO
    TITLE "0:"
    INDEX 01 01:46:10
  TRACK 125 AUDIO
    TITLE "27:cjc123_5553"
    INDEX 01 01:46:37
  TRACK 126 AUDIO
    TITLE "0:"
    INDEX 01 01:47:52
  TRACK 127 AUDIO
    TITLE "26:cjc123_5554"
    INDEX 01 01:48:24
  TRACK 128 AUDIO
    TITLE "0:"
    INDEX 01 01:49:43
  TRACK 129 AUDIO
    TITLE "27:cjc123_5555"
    INDEX 01 01:49:59
  TRACK 130 AUDIO
    TITLE "0:"
    INDEX 01 01:51:01
  TRACK 131 AUDIO
    TITLE "26:cjc123_5556"
    INDEX 01 01:51:50
  TRACK 132 AUDIO
    TITLE "0:"
    INDEX 01 01:52:53
  TRACK 133 AUDIO
    TITLE "27:cjc123_5557"
    INDEX 01 01:52:73
  TRACK 134 AUDIO
    TITLE "0:"
    INDEX 01 01:54:15
  TRACK 135 AUDIO
    TITLE "26:cjc123_5558"
    INDEX 01 01:54:68
  TRACK 136 AUDIO
    TITLE "0:"
    INDEX 01 01:55:63
  TRACK 137 AUDIO
    TITLE "27:cjc123_5559"
    INDEX 01 01:56:10
  TRACK 138 AUDIO
    TITLE "0:"
    INDEX 01 01:57:25
  TRACK 139 AUDIO
    TITLE "26:cjc123_5560"
    INDEX 01 01:57:74
  TRACK 140 AUDIO
    TITLE "0:"
    INDEX 01 01:59:22
  TRACK 141 AUDIO
    TITLE "27:cjc123_5561"
    INDEX 01 01:59:44
  TRACK 142 AUDIO
    TITLE "0:"
    INDEX 01 02:01:11
  TRACK 143 AUDIO
    TITLE "26:cjc123_5562"
    INDEX 01 02:01:56
  TRACK 144 AUDIO
    TITLE "0:"
    INDEX 01 02:03:02
  TRACK 145 AUDIO
    TITLE "27:cjc123_5563"
    INDEX 01 02:03:28
  TRACK 146 AUDIO
    TITLE "0:"
    INDEX 01 02:04:51
  TRACK 147 AUDIO
    TITLE "26:cjc123_5564"
    INDEX 01 02:05:21
  TRACK 148 AUDIO
    TITLE "0:"
    INDEX 01 02:06:34
  TRACK 149 AUDIO
    TITLE "27:cjc123_5565"
    INDEX 01 02:06:61
  TRACK 150 AUDIO
    TITLE "0:"
    INDEX 01 02:08:19
  TRACK 151 AUDIO
    TITLE "26:cjc123_5566"
    INDEX 01 02:08:62
  TRACK 152 AUDIO
    TITLE "0:"
    INDEX 01 02:10:00
  TRACK 153 AUDIO
    TITLE "27:cjc123_5567"
    INDEX 01 02:10:24
  TRACK 154 AUDIO
    TITLE "0:"
    INDEX 01 02:11:55
  TRACK 155 AUDIO
    TITLE "26:cjc123_5568"
    INDEX 01 02:12:25
  TRACK 156 AUDIO
    TITLE "0:"
    INDEX 01 02:13:18
  TRACK 157 AUDIO
    TITLE "27:cjc123_5569"
    INDEX 01 02:13:38
  TRACK 158 AUDIO
    TITLE "0:"
    INDEX 01 02:14:33
  TRACK 159 AUDIO
    TITLE "26:cjc123_5570"
    INDEX 01 02:15:07
  TRACK 160 AUDIO
    TITLE "0:"
    INDEX 01 02:16:26
  TRACK 161 AUDIO
    TITLE "27:cjc123_5571"
    INDEX 01 02:16:48
  TRACK 162 AUDIO
    TITLE "0:"
    INDEX 01 02:18:18
